<svg xmlns="http://www.w3.org/2000/svg" viewBox="0 0 100 100">
  <defs>
    <linearGradient id="g" x1="0%" y1="0%" x2="100%" y2="100%">
      <stop offset="0%" stop-color="#6c63ff" />
      <stop offset="100%" stop-color="#a78bfa" />
    </linearGradient>
  </defs>
  <rect width="100" height="100" rx="20" fill="url(#g)" />
  <path d="M50 25c-13.8 0-25 11.2-25 25s11.2 25 25 25 25-11.2 25-25-11.2-25-25-25zm0 40c-8.3 0-15-6.7-15-15s6.7-15 15-15 15 6.7 15 15-6.7 15-15 15zm0-25c-5.5 0-10 4.5-10 10s4.5 10 10 10 10-4.5 10-10-4.5-10-10-10zm-8.8 28.5L34 76.2l3.8 3.8 7.2-7.2-3.8-3.8zm21.4 0l-3.8 3.8 7.2 7.2 3.8-3.8-7.2-7.2z" fill="#ffffff" />
</svg>